<svg width="34" height="34" viewBox="0 0 34 34" fill="none" xmlns="http://www.w3.org/2000/svg">
<path d="M32.6667 3.97559C32.6667 3.18641 32.4165 2.42956 31.9711 1.87153C31.5257 1.3135 30.9216 1 30.2917 1H3.375C2.74511 1 2.14102 1.3135 1.69562 1.87153C1.25022 2.42956 1 3.18641 1 3.97559V12.9023H32.6667V3.97559Z" stroke="#C4C4C4" stroke-width="2" stroke-linecap="round" stroke-linejoin="round"/>
<path d="M1.08862 31.7773L10.7279 19.5776L15.9371 25.8262L22.3037 18.8535L25.8503 23.1859" stroke="#C4C4C4" stroke-width="2" stroke-linecap="round" stroke-linejoin="round"/>
<path d="M32.6667 10.9187V29.7643C32.6667 30.5534 32.4165 31.3103 31.9711 31.8683C31.5257 32.4264 30.9216 32.7399 30.2917 32.7399H7.33337" stroke="#C4C4C4" stroke-width="2" stroke-linecap="round" stroke-linejoin="round"/>
<path d="M12.9636 6.95129H27.2136" stroke="#C4C4C4" stroke-width="2" stroke-linecap="round" stroke-linejoin="round"/>
<path d="M6.62866 6.95129H8.212" stroke="#C4C4C4" stroke-width="2" stroke-linecap="round" stroke-linejoin="round"/>
<path d="M1 10.9187V19.8455" stroke="#C4C4C4" stroke-width="2" stroke-linecap="round" stroke-linejoin="round"/>
</svg>
