<svg width="30" height="24" viewBox="0 0 30 24" fill="none" xmlns="http://www.w3.org/2000/svg">
<path d="M29.5469 20.7207H0.453125C0.289844 20.7207 0.15625 20.8543 0.15625 21.0176V23.0957C0.15625 23.259 0.289844 23.3926 0.453125 23.3926H29.5469C29.7102 23.3926 29.8438 23.259 29.8438 23.0957V21.0176C29.8438 20.8543 29.7102 20.7207 29.5469 20.7207ZM2.14902 16.0746L3.62227 17.5404C3.7373 17.6555 3.92656 17.6555 4.0416 17.5404L12.7512 8.86056L16.373 12.4713C16.5962 12.6924 16.8976 12.8164 17.2117 12.8164C17.5258 12.8164 17.8272 12.6924 18.0504 12.4713L27.8547 2.70411C27.9697 2.58907 27.9697 2.39982 27.8547 2.28478L26.3814 0.815246C26.3256 0.759997 26.2503 0.729004 26.1718 0.729004C26.0933 0.729004 26.0179 0.759997 25.9621 0.815246L17.2154 9.53595L13.5898 5.92521C13.3667 5.70412 13.0653 5.58009 12.7512 5.58009C12.4371 5.58009 12.1356 5.70412 11.9125 5.92521L2.14902 15.6553C2.12127 15.6827 2.09923 15.7153 2.08418 15.7513C2.06914 15.7873 2.06139 15.8259 2.06139 15.865C2.06139 15.904 2.06914 15.9426 2.08418 15.9786C2.09923 16.0146 2.12127 16.0472 2.14902 16.0746Z" fill="#C4C4C4"/>
</svg>
