<svg id="Arrow_b_g" height="512" viewBox="0 0 100 100" width="512" xmlns="http://www.w3.org/2000/svg" xmlns:xlink="http://www.w3.org/1999/xlink"><linearGradient id="_제_그라디언트_1210" gradientUnits="userSpaceOnUse" x1="51.67" x2="51.67" y1="2.76" y2="90.56"><stop offset="0" stop-color="#27d7ff"/><stop offset=".04" stop-color="#29d2ff"/><stop offset=".44" stop-color="#3db3ff"/><stop offset=".77" stop-color="#49a0ff"/><stop offset="1" stop-color="#4e9aff"/></linearGradient><path d="m97.12 50c0 1.16-.56 2.27-1.53 3.05l-42.45 34.1c-1.47 1.18-2.41 1.52-3.06 1.52-.32 0-.56-.08-.77-.18-.59-.28-.95-.87-.95-1.53 0-1.25 1.44-3.95 1.6-4.26l16.56-30.76c.54-1.01.54-2.85 0-3.86l-16.56-30.76c-.16-.3-1.6-3.01-1.6-4.26 0-.67.36-1.25.95-1.53.63-.3 1.64-.42 3.83 1.34l42.45 34.1c.97.78 1.53 1.89 1.53 3.05zm-42.14 0c0-1.16-.56-2.27-1.53-3.05l-42.45-34.1c-2.19-1.76-3.2-1.64-3.83-1.34-.59.28-.95.87-.95 1.53 0 1.25 1.44 3.95 1.6 4.26l16.56 30.76c.54 1.01.54 2.85 0 3.86l-16.55 30.77c-.16.3-1.6 3.01-1.6 4.26 0 .67.36 1.25.95 1.53.21.1.45.18.77.18.65 0 1.58-.33 3.06-1.52l42.44-34.09c.97-.78 1.53-1.89 1.53-3.05z" fill="url(#_제_그라디언트_1210)"/></svg>