<svg xmlns="http://www.w3.org/2000/svg" version="1.1" xmlns:xlink="http://www.w3.org/1999/xlink" xmlns:svgjs="http://svgjs.com/svgjs" width="512" height="512" x="0" y="0" viewBox="0 0 66 66" style="enable-background:new 0 0 512 512" xml:space="preserve" class=""><g><linearGradient id="b" x1="48.271" x2="48.271" y1="8.095" y2="38.899" gradientUnits="userSpaceOnUse"><stop stop-opacity="1" stop-color="#7f8cf8" offset="0"></stop><stop stop-opacity="1" stop-color="#305efe" offset="1"></stop></linearGradient><linearGradient id="a"><stop stop-opacity="1" stop-color="#619cff" offset="0"></stop><stop stop-opacity="1" stop-color="#0a5cff" offset="1"></stop></linearGradient><linearGradient xlink:href="#a" id="c" x1="7.476" x2="7.476" y1="63.913" y2="50.688" gradientUnits="userSpaceOnUse"></linearGradient><linearGradient xlink:href="#a" id="d" x1="17.08" x2="17.08" y1="63.625" y2="36.866" gradientUnits="userSpaceOnUse"></linearGradient><linearGradient xlink:href="#a" id="e" x1="26.683" x2="26.683" y1="63.524" y2="46.78" gradientUnits="userSpaceOnUse"></linearGradient><linearGradient xlink:href="#a" id="f" x1="36.287" x2="36.287" y1="63.329" y2="42.805" gradientUnits="userSpaceOnUse"></linearGradient><linearGradient id="g" x1="42.354" x2="42.354" y1="12.374" y2="32.603" gradientUnits="userSpaceOnUse"><stop offset="0" stop-color="#fefdff"></stop><stop offset="1" stop-color="#dedfff"></stop></linearGradient><linearGradient xlink:href="#a" id="h" x1="54.187" x2="54.187" y1="31.92" y2="13.407" gradientUnits="userSpaceOnUse"></linearGradient><circle cx="48.27" cy="24.12" r="15.81" fill="url(#b)" data-original="url(#b)"></circle><g fill="#dedfff"><path d="M33.87 5.49a.754.754 0 0 0-1.06 0l-8.06 8.06c-.29.29-.29.77 0 1.06.15.15.34.22.53.22s.38-.07.53-.22l8.06-8.06c.29-.29.29-.76 0-1.06zM18.65 8.85c-.29-.29-.77-.29-1.06 0s-.29.77 0 1.06l4.71 4.71c.15.15.34.22.53.22s.38-.07.53-.22c.29-.29.29-.77 0-1.06zM15.15 8.85l-8.4 8.4c-.29.29-.29.77 0 1.06.15.15.34.22.53.22s.38-.07.53-.22l8.4-8.4c.29-.29.29-.77 0-1.06s-.76-.29-1.06 0z" fill="#0016ff" data-original="#dedfff" class=""></path></g><path fill="url(#c)" d="M4.66 50.26h5.63v13.36H4.66z" data-original="url(#c)" class=""></path><path fill="url(#d)" d="M14.27 36.35h5.63v27.28h-5.63z" data-original="url(#d)"></path><path fill="url(#e)" d="M23.87 46.29h5.63v17.34h-5.63z" data-original="url(#e)" class=""></path><path fill="url(#f)" d="M33.47 42.31h5.63v21.31h-5.63z" data-original="url(#f)" class=""></path><path fill="url(#g)" d="M48.27 12.29c-6.54 0-11.83 5.3-11.83 11.83 0 3.27 1.32 6.23 3.47 8.37l8.37-8.37V12.29z" data-original="url(#g)"></path><path fill="url(#h)" d="M48.27 12.29v11.83l8.37 8.37c2.14-2.14 3.47-5.1 3.47-8.37-.01-6.53-5.3-11.83-11.84-11.83z" data-original="url(#h)"></path><path fill="#7695ff" d="M39.9 32.49c2.14 2.14 5.1 3.47 8.37 3.47s6.23-1.32 8.37-3.47l-8.37-8.37z" data-original="#8e76ff" class=""></path><path fill="#3d49c5" d="M45.23 43.21v16.85c0 1.68 1.36 3.04 3.04 3.04s3.04-1.36 3.04-3.04V43.21z" data-original="#653dc5" class=""></path><g fill="#8e76ff"><path d="M48.27 39.93c-1.91 0-3.74-.36-5.43-.98v3.27c0 .55.44.99.99.99h8.88c.55 0 .99-.44.99-.99v-3.27c-1.69.62-3.52.98-5.43.98z" fill="#7695ff" data-original="#8e76ff" class=""></path><circle cx="5.95" cy="19.11" r="3.28" fill="#7695ff" data-original="#8e76ff" class=""></circle><circle cx="17.01" cy="8.05" r="3.28" fill="#7695ff" data-original="#8e76ff" class=""></circle><circle cx="24.16" cy="15.2" r="3.28" fill="#7695ff" data-original="#8e76ff" class=""></circle><circle cx="34.46" cy="4.91" r="3.28" fill="#7695ff" data-original="#8e76ff" class=""></circle></g><path fill="#4f98ff" d="M41.09 64.38H2.67c-.41 0-.75-.34-.75-.75s.34-.75.75-.75h38.42c.41 0 .75.34.75.75s-.34.75-.75.75z" data-original="#ffcd0a" class=""></path></g></svg>