<svg xmlns="http://www.w3.org/2000/svg" version="1.1" xmlns:xlink="http://www.w3.org/1999/xlink" xmlns:svgjs="http://svgjs.com/svgjs" width="512" height="512" x="0" y="0" viewBox="0 0 152 152" style="enable-background:new 0 0 512 512" xml:space="preserve" class=""><g><linearGradient id="a" x1="22.26" x2="129.74" y1="22.26" y2="129.74" gradientUnits="userSpaceOnUse"><stop stop-opacity="1" stop-color="#00a0ff" offset="0"></stop><stop stop-opacity="1" stop-color="#4676ff" offset="1"></stop></linearGradient><g data-name="Layer 2"><g data-name="09.rupee_badge"><circle cx="76" cy="76" r="76" fill="url(#a)" data-original="url(#a)" class=""></circle><path fill="#ffffff" d="m112 71.08-5-5a7 7 0 0 1-2-4.92v-7.11a7 7 0 0 0-7-7h-7.1a7 7 0 0 1-4.92-2l-5-5a7 7 0 0 0-9.84 0l-5 5a6.92 6.92 0 0 1-4.92 2h-7.17a7 7 0 0 0-7 7v7.09a6.92 6.92 0 0 1-2 4.92l-5 5a7 7 0 0 0 0 9.84l5 5a7 7 0 0 1 2 4.93V98a7 7 0 0 0 7 7h7.09a6.92 6.92 0 0 1 4.92 2l5 5a7 7 0 0 0 9.84 0l5-5a7 7 0 0 1 4.92-2H98a7 7 0 0 0 7-7v-7.14a7 7 0 0 1 2-4.93l5-5a7 7 0 0 0 0-9.85zm-23.81-1.83c0 .86-.23 1.08-1.11 1.09h-3.83c-1.12 5.47-4.91 7.78-10 8.56l.31.39Q79 85.65 84.41 92a.87.87 0 0 1 .26 1 .92.92 0 0 1-1 .48h-4.41a1.19 1.19 0 0 1-1-.47q-6.06-7-12.12-13.91a1.45 1.45 0 0 1-.34-.87V75.5c0-.74.28-1 1-1 1.66-.06 3.32 0 5-.19A7 7 0 0 0 75.38 73a4.66 4.66 0 0 0 1.86-2.67H67c-1 0-1.22-.2-1.22-1.23v-1.73c0-1 .21-1.17 1.15-1.17h10a10.46 10.46 0 0 0-.65-.89 5.68 5.68 0 0 0-3.93-1.75c-1.77-.14-3.55-.12-5.33-.15-1 0-1.2-.24-1.2-1.2v-2.73c0-.72.26-1 1-1h20.35c.71 0 1 .24 1 .94v2.21c0 .74-.25 1-1 1h-5.45c.51 1.16 1 2.31 1.57 3.58h3.14c1.76 0 1.76 0 1.76 1.77z" data-original="#ffffff" class=""></path></g></g></g></svg>