<svg xmlns="http://www.w3.org/2000/svg" version="1.1" xmlns:xlink="http://www.w3.org/1999/xlink" xmlns:svgjs="http://svgjs.com/svgjs" width="512" height="512" x="0" y="0" viewBox="0 0 512 512" style="enable-background:new 0 0 512 512" xml:space="preserve"><g><linearGradient id="a" x1="95.794" x2="414.817" y1="94.801" y2="413.824" gradientUnits="userSpaceOnUse"><stop stop-opacity="1" stop-color="#99abff" offset="0"></stop><stop stop-opacity="1" stop-color="#204aff" offset="1"></stop></linearGradient><linearGradient xlink:href="#a" id="b" x1="179.867" x2="330.783" y1="178.854" y2="329.771"></linearGradient><path fill="url(#a)" d="M255.313 480C130.859 480 29.609 378.75 29.609 254.312S130.86 28.625 255.313 28.625C379.75 28.625 481 129.875 481 254.313S379.75 480 255.313 480zm0-403.375c-97.985 0-177.704 79.703-177.704 177.688S157.33 432 255.313 432 433 352.297 433 254.312 353.297 76.625 255.313 76.625z" data-original="url(#a)"></path><path fill="url(#b)" d="m282.474 197.947 42.846 19.085c15.203 7.782 23.946-8.336 16.297-18.184-14.192-18.275-56.905-64.576-76.398-85.544a13.488 13.488 0 0 0-19.789 0c-19.493 20.968-62.205 67.269-76.398 85.544-7.838 10.092 1.378 25.821 16.297 18.184l42.846-19.085v112.731l-42.846-19.085c-14.92-7.637-24.135 8.092-16.297 18.184 14.193 18.275 56.905 64.576 76.398 85.544a13.488 13.488 0 0 0 19.789 0c19.493-20.968 62.206-67.269 76.398-85.544 7.65-9.848-1.094-25.966-16.297-18.184l-42.846 19.085z" data-original="url(#b)"></path></g></svg>