<svg xmlns="http://www.w3.org/2000/svg" version="1.1" xmlns:xlink="http://www.w3.org/1999/xlink" xmlns:svgjs="http://svgjs.com/svgjs" width="512" height="512" x="0" y="0" viewBox="0 0 64 64" style="enable-background:new 0 0 512 512" xml:space="preserve" class=""><g><linearGradient id="a" x1="4" x2="60" y1="32" y2="32" gradientUnits="userSpaceOnUse"><stop stop-opacity="1" stop-color="#9cd7ff" offset="0"></stop><stop stop-opacity="1" stop-color="#005fff" offset="1"></stop></linearGradient><path fill="url(#a)" d="m51.25 31.38-9.31 27.952a1.01 1.01 0 0 1-1.88.05l-4.07-10.17 3.77-3.77a2.94 2.94 0 0 0 .88-2.121 3.011 3.011 0 0 0-5.11-2.11l-1.96 1.96-2.43-6.08 3.27-3.27a2.94 2.94 0 0 0 .88-2.121 3.012 3.012 0 0 0-5.111-2.11l-3.27 3.27-6.08-2.43 1.96-1.96a2.991 2.991 0 0 0-4.231-4.23l-3.78 3.77-10.161-4.07a1.01 1.01 0 0 1 .05-1.88l27.952-9.312C24.933 24.85 39.137 39.082 51.251 31.38zM33 32.41A.997.997 0 0 0 31.59 31c-1.163 1.164-18.376 18.366-20.113 20.102a1.004 1.004 0 0 0 1.42 1.42C14.627 50.794 31.753 33.652 33 32.41zm3.94 10.21L25.629 53.933a.997.997 0 0 0 1.41 1.41l11.31-11.311a.997.997 0 0 0-1.41-1.41zM19.968 25.65c-2.21 2.206-8.995 9-11.31 11.31a.997.997 0 0 0 1.41 1.41l11.31-11.31a.997.997 0 0 0-1.41-1.41zm35.462-6.81a11.548 11.548 0 0 1-11.44 12.67c-10.4.06-15.45-13.04-7.77-19.97 6.73-6.38 18.37-2.02 19.21 7.3zm-8.78-3.83h1.85a1 1 0 0 0 0-2h-9a1 1 0 0 0 0 2H44c.35 0 .83.57 1.08 1.51H39.5a1 1 0 0 0 0 2h5.71c-.1.82-.46 2.03-1.21 2.19h-2.25c-.02 0-.04.01-.06.01a1.01 1.01 0 0 0-.8 1.5l3.58 6.14a1.002 1.002 0 0 0 1.73-1.01l-2.71-4.64H44c1.93.01 3.11-2.3 3.21-4.19h1.29a1 1 0 0 0 0-2h-1.38a5.799 5.799 0 0 0-.47-1.51zM58.671 4.058l-9.94 3.32a13.464 13.464 0 0 1 7.59 7.14c.11.24.21.49.31.74l3.31-9.93a1.009 1.009 0 0 0-1.27-1.27z" data-original="url(#a)"></path></g></svg>