<?xml version="1.0" encoding="UTF-8"?><svg id="Layer_1" xmlns="http://www.w3.org/2000/svg" xmlns:xlink="http://www.w3.org/1999/xlink" viewBox="0 0 1047.751 1047.751"><defs><style>.cls-1,.cls-2{fill:#196df4;}.cls-1,.cls-3{stroke:#196df4;stroke-miterlimit:10;}.cls-4{fill:url(#linear-gradient-2);}.cls-5{fill:#fff;}.cls-6{clip-path:url(#clippath-1);}.cls-3{stroke-width:4px;}.cls-3,.cls-7{fill:none;}.cls-8{clip-path:url(#clippath);}.cls-9{fill:url(#linear-gradient);}</style><clipPath id="clippath"><rect class="cls-7" width="1047.751" height="1047.751"/></clipPath><clipPath id="clippath-1"><path class="cls-7" d="m1047.751,523.876c0,8.571-.211,17.142-.632,25.707-.422,8.559-1.048,17.106-1.891,25.641-.837,8.535-1.891,17.04-3.15,25.52-1.253,8.481-2.722,16.925-4.391,25.334-1.674,8.408-3.554,16.775-5.638,25.087-2.084,8.318-4.367,16.582-6.854,24.786-2.494,8.204-5.18,16.341-8.065,24.412-2.891,8.071-5.975,16.07-9.258,23.99-3.283,7.921-6.752,15.757-10.42,23.509-3.662,7.752-7.517,15.407-11.559,22.967s-8.27,15.022-12.673,22.37c-4.409,7.354-8.993,14.6-13.757,21.726-4.764,7.131-9.697,14.136-14.805,21.021-5.108,6.891-10.384,13.649-15.823,20.274-5.439,6.626-11.035,13.119-16.793,19.467-5.758,6.354-11.667,12.564-17.732,18.624-6.059,6.065-12.269,11.974-18.624,17.732-6.348,5.758-12.842,11.354-19.467,16.793-6.626,5.439-13.384,10.715-20.274,15.823-6.885,5.108-13.89,10.041-21.021,14.805-7.125,4.764-14.371,9.348-21.726,13.757-7.348,4.403-14.811,8.631-22.37,12.673-7.559,4.042-15.215,7.896-22.967,11.559-7.752,3.668-15.588,7.138-23.509,10.42-7.921,3.283-15.919,6.367-23.99,9.258-8.071,2.885-16.208,5.571-24.412,8.065-8.204,2.488-16.467,4.77-24.786,6.854-8.312,2.084-16.678,3.963-25.087,5.638-8.408,1.668-16.853,3.138-25.334,4.391-8.481,1.259-16.985,2.313-25.52,3.15-8.535.843-17.082,1.47-25.641,1.891-8.565.422-17.136.632-25.707.632s-17.142-.211-25.707-.632-17.112-1.048-25.641-1.891c-8.535-.837-17.04-1.891-25.52-3.15-8.481-1.253-16.925-2.722-25.334-4.391-8.408-1.674-16.775-3.554-25.093-5.638-8.312-2.084-16.576-4.367-24.78-6.854-8.204-2.494-16.341-5.18-24.412-8.065-8.077-2.891-16.07-5.975-23.99-9.258-7.921-3.283-15.757-6.752-23.509-10.42-7.752-3.662-15.407-7.517-22.967-11.559-7.565-4.042-15.022-8.27-22.376-12.673-7.354-4.409-14.594-8.993-21.72-13.757-7.131-4.764-14.136-9.697-21.027-14.805-6.885-5.108-13.643-10.384-20.268-15.823-6.626-5.439-13.119-11.035-19.473-16.793-6.348-5.758-12.558-11.667-18.618-17.732-6.065-6.059-11.974-12.269-17.732-18.624-5.758-6.348-11.354-12.842-16.793-19.467-5.439-6.626-10.715-13.384-15.823-20.274-5.108-6.885-10.041-13.89-14.805-21.021-4.764-7.125-9.348-14.371-13.757-21.726-4.409-7.348-8.631-14.811-12.673-22.37s-7.896-15.215-11.559-22.967c-3.668-7.752-7.144-15.588-10.42-23.509-3.283-7.921-6.367-15.919-9.258-23.99-2.885-8.071-5.578-16.208-8.065-24.412s-4.776-16.467-6.86-24.786c-2.078-8.312-3.957-16.678-5.632-25.087s-3.138-16.853-4.397-25.334-2.307-16.985-3.144-25.52c-.843-8.535-1.476-17.082-1.891-25.641-.422-8.565-.632-17.136-.632-25.707s.211-17.142.632-25.707c.416-8.565,1.048-17.112,1.891-25.641.837-8.535,1.885-17.04,3.144-25.52s2.722-16.925,4.397-25.334,3.554-16.775,5.632-25.093c2.084-8.312,4.373-16.576,6.86-24.78s5.18-16.341,8.065-24.412c2.891-8.077,5.975-16.07,9.258-23.99,3.277-7.921,6.752-15.757,10.42-23.509,3.662-7.752,7.517-15.407,11.559-22.967,4.042-7.565,8.264-15.022,12.673-22.376s8.993-14.594,13.757-21.72c4.764-7.131,9.697-14.136,14.805-21.027,5.108-6.885,10.384-13.643,15.823-20.268s11.035-13.119,16.793-19.473c5.758-6.348,11.667-12.558,17.732-18.618,6.059-6.065,12.269-11.974,18.618-17.732,6.354-5.758,12.848-11.354,19.473-16.793,6.626-5.439,13.384-10.715,20.268-15.823,6.891-5.108,13.896-10.041,21.027-14.805,7.125-4.764,14.365-9.348,21.72-13.757s14.811-8.631,22.376-12.673c7.559-4.042,15.215-7.896,22.967-11.559,7.752-3.668,15.588-7.144,23.509-10.42,7.921-3.283,15.913-6.367,23.99-9.258,8.071-2.885,16.208-5.578,24.412-8.065s16.467-4.776,24.78-6.86c8.318-2.078,16.684-3.957,25.093-5.632s16.853-3.138,25.334-4.397c8.481-1.259,16.985-2.307,25.52-3.144,8.529-.843,17.076-1.476,25.641-1.891,8.565-.422,17.13-.632,25.707-.632s17.142.211,25.707.632c8.559.416,17.106,1.048,25.641,1.891,8.535.837,17.04,1.885,25.52,3.144,8.481,1.259,16.925,2.722,25.334,4.397s16.775,3.554,25.087,5.632c8.318,2.084,16.582,4.373,24.786,6.86s16.341,5.18,24.412,8.065c8.071,2.891,16.07,5.975,23.99,9.258,7.921,3.277,15.757,6.752,23.509,10.42,7.752,3.662,15.407,7.517,22.967,11.559,7.559,4.042,15.022,8.264,22.37,12.673,7.354,4.409,14.6,8.993,21.726,13.757,7.131,4.764,14.136,9.697,21.021,14.805,6.891,5.108,13.649,10.384,20.274,15.823s13.119,11.035,19.467,16.793c6.354,5.758,12.564,11.667,18.624,17.732,6.065,6.059,11.974,12.269,17.732,18.618,5.758,6.354,11.354,12.848,16.793,19.473,5.439,6.626,10.715,13.384,15.823,20.268,5.108,6.891,10.041,13.896,14.805,21.027,4.764,7.125,9.348,14.365,13.757,21.72,4.403,7.354,8.631,14.811,12.673,22.376,4.042,7.559,7.896,15.215,11.559,22.967,3.668,7.752,7.138,15.588,10.42,23.509,3.283,7.921,6.367,15.913,9.258,23.99,2.885,8.071,5.571,16.208,8.065,24.412,2.488,8.204,4.77,16.467,6.854,24.78,2.084,8.318,3.963,16.684,5.638,25.093,1.668,8.408,3.138,16.853,4.391,25.334,1.259,8.481,2.313,16.985,3.15,25.52.843,8.529,1.47,17.076,1.891,25.641s.632,17.13.632,25.707Z"/></clipPath><linearGradient id="linear-gradient" x1="522.99" y1="524.761" x2="-55.239" y2="1102.99" gradientTransform="translate(100.092 1998.617) scale(1.812 -1.812)" gradientUnits="userSpaceOnUse"><stop offset="0" stop-color="#4f79f6"/><stop offset=".25" stop-color="#4f79f6"/><stop offset=".312" stop-color="#4f79f6"/><stop offset=".344" stop-color="#4f79f6"/><stop offset=".352" stop-color="#4f7af6"/><stop offset=".359" stop-color="#4f7af6"/><stop offset=".367" stop-color="#4f7bf6"/><stop offset=".375" stop-color="#4e7cf6"/><stop offset=".383" stop-color="#4e7df6"/><stop offset=".391" stop-color="#4e7df6"/><stop offset=".398" stop-color="#4e7ef6"/><stop offset=".406" stop-color="#4d7ff6"/><stop offset=".414" stop-color="#4d80f6"/><stop offset=".422" stop-color="#4d81f7"/><stop offset=".43" stop-color="#4d81f7"/><stop offset=".438" stop-color="#4d82f7"/><stop offset=".445" stop-color="#4c83f7"/><stop offset=".453" stop-color="#4c84f7"/><stop offset=".461" stop-color="#4c85f7"/><stop offset=".469" stop-color="#4c85f7"/><stop offset=".477" stop-color="#4c86f7"/><stop offset=".484" stop-color="#4b87f7"/><stop offset=".492" stop-color="#4b88f7"/><stop offset=".5" stop-color="#4b88f7"/><stop offset=".5" stop-color="#4b89f7"/><stop offset=".508" stop-color="#4b8af7"/><stop offset=".516" stop-color="#4b8af7"/><stop offset=".523" stop-color="#4a8bf7"/><stop offset=".531" stop-color="#4a8cf7"/><stop offset=".539" stop-color="#4a8cf7"/><stop offset=".547" stop-color="#4a8df7"/><stop offset=".555" stop-color="#4a8ef7"/><stop offset=".562" stop-color="#498ff7"/><stop offset=".57" stop-color="#498ff7"/><stop offset=".578" stop-color="#4990f7"/><stop offset=".586" stop-color="#4991f8"/><stop offset=".594" stop-color="#4992f8"/><stop offset=".602" stop-color="#4893f8"/><stop offset=".609" stop-color="#4893f8"/><stop offset=".617" stop-color="#4894f8"/><stop offset=".625" stop-color="#4895f8"/><stop offset=".633" stop-color="#4896f8"/><stop offset=".641" stop-color="#4797f8"/><stop offset=".648" stop-color="#4797f8"/><stop offset=".656" stop-color="#4798f8"/><stop offset=".664" stop-color="#4799f8"/><stop offset=".672" stop-color="#469af8"/><stop offset=".68" stop-color="#469af8"/><stop offset=".688" stop-color="#469bf8"/><stop offset=".75" stop-color="#469bf8"/><stop offset="1" stop-color="#469bf8"/></linearGradient><linearGradient id="linear-gradient-2" x1="523.878" y1="838.178" x2="523.878" y2="329.814" gradientUnits="userSpaceOnUse"><stop offset="0" stop-color="#4f94f7"/><stop offset=".264" stop-color="#4c8ff6"/><stop offset=".54" stop-color="#4483f6"/><stop offset=".82" stop-color="#366ef6"/><stop offset="1" stop-color="#2b5df6"/><stop offset="1" stop-color="#4f94f7"/></linearGradient></defs><g class="cls-8"><g class="cls-6"><path class="cls-9" d="m0,0v1047.751h1047.751V0H0Z"/></g></g><path class="cls-5" d="m972.192,523.876c0-22.301,22.666-45.914,19.667-67.274-3.181-21.925-31.467-38.229-37.647-59.031-6.179-21.178,8.802-50.23-.188-70.091-9.178-20.055-41.021-27.734-52.822-46.102-11.988-18.556-5.615-50.6-20.037-67.281-14.422-16.492-47.019-14.993-63.687-29.233-16.48-14.429-19.479-47.037-38.023-58.843-18.356-11.806-49.259-1.129-69.302-10.307-19.855-8.996-31.844-39.546-53.01-45.732-20.79-6.179-47.389,12.935-69.302,9.749-21.543-2.999-41.768-28.863-64.057-28.863s-42.521,25.865-63.875,28.863c-21.913,3.187-48.512-15.928-69.302-9.749-21.166,6.185-33.337,36.736-53.004,45.732-20.043,9.178-50.952-1.687-69.308,10.307-18.544,11.994-21.537,44.603-38.023,58.843-16.48,14.429-49.259,12.741-63.681,29.233-14.422,16.492-8.055,48.724-20.043,67.281-11.8,18.368-43.644,26.047-52.822,46.102-8.99,19.861,5.997,48.913-.188,70.091-6.179,20.802-34.648,37.106-37.647,59.031-2.999,21.361,19.667,44.973,19.667,67.274s-22.666,45.914-19.667,67.281c3.187,21.925,31.467,38.229,37.647,59.031,6.185,21.178-8.802,50.224.188,70.091,9.178,20.049,41.021,27.734,52.822,46.102,11.988,18.55,5.621,50.6,20.043,67.281,14.422,16.486,47.013,14.987,63.681,29.233,16.486,14.429,19.479,47.037,38.023,58.843,18.356,11.806,49.265,1.123,69.308,10.307,19.849,8.996,31.837,39.546,53.004,45.726,20.79,6.185,47.389-12.929,69.302-9.742,21.354,2.999,41.586,28.857,63.875,28.857s42.515-25.858,63.869-28.857c21.913-3.187,48.512,15.928,69.302,9.742,21.166-6.179,33.343-36.73,53.01-45.726,20.043-9.184,50.946,1.687,69.302-10.307,18.544-11.994,21.543-44.603,38.023-58.843,16.486-14.429,49.265-12.747,63.687-29.233,14.422-16.492,8.055-48.73,20.043-67.281,11.8-18.368,43.638-26.053,52.816-46.102,8.99-19.867-5.991-48.913.188-70.091,6.179-20.802,34.466-37.106,37.647-59.031,3.187-21.367-19.479-44.979-19.479-67.281Z"/><line class="cls-3" x1="579.592" y1="834.422" x2="579.592" y2="820.239"/><line class="cls-3" x1="579.592" y1="753.574" x2="579.592" y2="738.274"/><line class="cls-3" x1="694.622" y1="773.213" x2="694.622" y2="759.031"/><line class="cls-3" x1="694.622" y1="630.224" x2="694.622" y2="616.983"/><line class="cls-3" x1="637.107" y1="808.153" x2="637.107" y2="796.094"/><line class="cls-3" x1="637.107" y1="753.574" x2="637.107" y2="738.274"/><rect class="cls-2" x="615.852" y="753.574" width="42.511" height="42.52"/><rect class="cls-2" x="558.337" y="753.574" width="42.511" height="66.666"/><rect class="cls-2" x="673.367" y="630.224" width="42.511" height="128.807"/><path class="cls-1" d="m255.028,282.862v-23.351c0-8.8,7.147-15.937,15.974-15.937h505.744c8.818,0,15.974,7.137,15.974,15.937v23.351c0,8.799-7.156,15.937-15.974,15.937h-505.744c-8.827,0-15.974-7.137-15.974-15.937Z"/><path class="cls-4" d="m776.75,329.814h-505.744c-8.827,0-15.974,7.128-15.974,15.928v23.361c0,8.8,7.147,15.928,15.974,15.928h177.218v73.129c.046-.019.102-.037.148-.055v.342c-2.198.813-4.386,1.662-6.565,2.567-49.307,20.351-87.958,58.245-108.825,106.693-10.166,23.619-15.558,48.476-16.011,73.886-.471,26.352,4.404,52.114,14.506,76.582,10.101,24.469,24.81,46.176,43.739,64.523,18.236,17.682,39.593,31.505,63.462,41.07,23.221,9.312,47.599,14.103,72.073,14.411v-42.514c-60.11-1.023-116.279-36.03-140.068-93.677-30.895-74.846,3.813-161.105,77.543-197.347v127.994c0,4.312,7.082,7.811,15.808,7.811h20.591c8.726,0,15.808-3.499,15.808-7.811l-.194-247.604h47.091v247.604c0,4.312,7.073,7.811,15.808,7.811h20.581c8.735,0,15.808-3.499,15.808-7.811l-.185-247.604h177.412c8.818,0,15.974-7.128,15.974-15.928v-23.361c0-8.8-7.156-15.928-15.974-15.928Z"/></svg>